# xmcd CD database file
#
# Track frame offsets:
#	150
#	23219
#	42801
#	66963
#	89432
#	112219
#	134283
#	153673
#	169395
#	191386
#	209935
#	235239
#	258655
#	284034
#	305347
#
# Disc length: 4401 seconds
#
# Revision: 0
# Processed by: cddbd v1.5.2PL0 Copyright (c) Steve Scherf et al.
# Submitted via: CDex 1.51
#
DISCID=eb112f0f
DTITLE=Michel Pepe - Elixir D'Amour
DYEAR=2012
DGENRE=New Age
TTITLE0=Lumiere Du Coeur
TTITLE1=L' Envol
TTITLE2=Le Philtre Alchimique
TTITLE3=Retrouvailles
TTITLE4=Infinie Tendresse
TTITLE5=Sous Les Ailes Des Anges
TTITLE6=La Quintessence Sacree
TTITLE7=In Memoria
TTITLE8=Eternelle Gratitude
TTITLE9=Les Petales Du Pardon
TTITLE10=La Rose Magnifique
TTITLE11=L'Eveil De L'Esprit
TTITLE12=La Grande Traversee
TTITLE13=Le Sourire De L'Ame
TTITLE14=Amour Divin
EXTD=YEAR: 2012
EXTT0=
EXTT1=
EXTT2=
EXTT3=
EXTT4=
EXTT5=
EXTT6=
EXTT7=
EXTT8=
EXTT9=
EXTT10=
EXTT11=
EXTT12=
EXTT13=
EXTT14=
PLAYORDER=
